<svg width="1600" height="900" viewBox="0 0 1600 900" fill="none" xmlns="http://www.w3.org/2000/svg">
  <rect width="1600" height="900" fill="#F8FBFF"/>
  <rect y="620" width="1600" height="280" fill="#DDEAFE"/>
  <rect x="150" y="170" width="900" height="430" rx="36" fill="#FFFFFF" stroke="#A7C5F9" stroke-width="8"/>
  <rect x="220" y="250" width="760" height="280" rx="22" fill="#0F172A"/>
  <rect x="260" y="290" width="310" height="200" rx="16" fill="#2563EB"/>
  <rect x="600" y="290" width="150" height="200" rx="16" fill="#60A5FA"/>
  <rect x="780" y="290" width="150" height="200" rx="16" fill="#F97316"/>
  <rect x="1120" y="210" width="180" height="460" rx="24" fill="#FFFFFF" stroke="#2563EB" stroke-width="10"/>
  <rect x="1150" y="240" width="120" height="240" rx="14" fill="#0F172A"/>
  <rect x="1168" y="258" width="84" height="84" rx="10" fill="#2563EB"/>
  <rect x="1168" y="356" width="84" height="22" rx="8" fill="#60A5FA"/>
  <rect x="1168" y="390" width="84" height="22" rx="8" fill="#F97316"/>
  <rect x="1168" y="424" width="84" height="22" rx="8" fill="#BFDBFE"/>
  <rect x="1195" y="480" width="30" height="120" rx="12" fill="#CBD5E1"/>
  <rect x="1140" y="600" width="140" height="28" rx="14" fill="#94A3B8"/>
  <circle cx="340" cy="170" r="40" fill="#BFDBFE"/>
  <circle cx="1410" cy="160" r="56" fill="#DBEAFE"/>
  <rect x="320" y="140" width="250" height="36" rx="18" fill="#2563EB"/>
  <rect x="600" y="140" width="170" height="36" rx="18" fill="#E0F2FE"/>
  <rect x="450" y="680" width="280" height="120" rx="24" fill="#FFFFFF" stroke="#A7C5F9" stroke-width="6"/>
  <rect x="500" y="722" width="180" height="18" rx="9" fill="#2563EB"/>
  <rect x="500" y="754" width="120" height="18" rx="9" fill="#60A5FA"/>
</svg>
