<svg width="1200" height="900" viewBox="0 0 1200 900" fill="none" xmlns="http://www.w3.org/2000/svg">
  <rect width="1200" height="900" fill="#F8FBFF"/>
  <rect x="120" y="120" width="960" height="660" rx="40" fill="#FFFFFF" stroke="#BFDBFE" stroke-width="8"/>
  <rect x="180" y="190" width="360" height="500" rx="36" fill="#0F172A"/>
  <rect x="208" y="230" width="304" height="92" rx="16" fill="#2563EB"/>
  <rect x="230" y="254" width="110" height="18" rx="9" fill="#DBEAFE"/>
  <rect x="230" y="284" width="180" height="18" rx="9" fill="#93C5FD"/>
  <rect x="208" y="348" width="304" height="72" rx="14" fill="#1D4ED8"/>
  <rect x="230" y="374" width="80" height="20" rx="10" fill="#FFFFFF"/>
  <rect x="332" y="374" width="98" height="20" rx="10" fill="#F97316"/>
  <rect x="208" y="446" width="304" height="72" rx="14" fill="#1E3A8A"/>
  <rect x="230" y="472" width="110" height="20" rx="10" fill="#FFFFFF"/>
  <rect x="208" y="544" width="304" height="96" rx="14" fill="#334155"/>
  <rect x="650" y="180" width="280" height="430" rx="28" fill="#FFFFFF" stroke="#2563EB" stroke-width="10"/>
  <rect x="690" y="228" width="200" height="240" rx="18" fill="#0F172A"/>
  <rect x="718" y="256" width="144" height="88" rx="12" fill="#2563EB"/>
  <rect x="718" y="360" width="144" height="22" rx="8" fill="#60A5FA"/>
  <rect x="718" y="394" width="108" height="22" rx="8" fill="#F97316"/>
  <rect x="760" y="470" width="60" height="96" rx="22" fill="#CBD5E1"/>
  <path d="M540 420C596 420 618 420 650 420" stroke="#F97316" stroke-width="14" stroke-linecap="round"/>
  <path d="M614 392L650 420L614 448" stroke="#F97316" stroke-width="14" stroke-linecap="round" stroke-linejoin="round"/>
  <rect x="660" y="650" width="260" height="38" rx="19" fill="#E0F2FE"/>
  <rect x="708" y="660" width="164" height="18" rx="9" fill="#2563EB"/>
</svg>
